<?xml version="1.0" standalone="no"?>
<!DOCTYPE svg PUBLIC "-//W3C//DTD SVG 20010904//EN"
 "http://www.w3.org/TR/2001/REC-SVG-20010904/DTD/svg10.dtd">
<svg version="1.0" xmlns="http://www.w3.org/2000/svg"
 width="747.000000pt" height="171.000000pt" viewBox="0 0 747.000000 171.000000"
 preserveAspectRatio="xMidYMid meet">

<g transform="translate(0.000000,171.000000) scale(0.100000,-0.100000)"
fill="#000000" stroke="none">
<path d="M632 1475 c-218 -48 -410 -237 -467 -460 -21 -84 -19 -215 5 -310 27
-106 80 -197 164 -281 124 -123 259 -179 436 -179 182 0 329 63 451 192 113
120 171 263 171 423 0 299 -195 547 -485 615 -76 18 -191 18 -275 0z m271 -64
c135 -35 233 -99 312 -203 81 -106 115 -209 116 -343 1 -94 -13 -158 -52 -240
-93 -197 -289 -320 -509 -320 -314 0 -559 248 -560 565 0 259 187 489 443 545
88 19 163 18 250 -4z"/>
<path d="M892 1017 l-22 -23 65 -64 65 -64 -65 -66 -66 -66 24 -22 23 -22 87
88 87 87 -88 88 -88 88 -22 -24z"/>
<path d="M542 952 c-45 -42 -82 -82 -82 -88 0 -6 38 -46 85 -89 84 -76 86 -77
106 -59 20 18 19 18 -46 84 l-65 66 65 64 c61 60 64 65 48 82 -9 10 -19 18
-22 18 -3 -1 -43 -35 -89 -78z"/>
<path d="M4600 1151 l0 -150 -50 34 c-126 85 -288 40 -363 -100 -30 -55 -32
-221 -3 -275 76 -144 238 -191 365 -106 l49 33 7 -33 c5 -32 8 -34 45 -34 l40
0 0 390 0 390 -45 0 -45 0 0 -149z m-92 -177 c20 -8 49 -27 65 -41 26 -26 27
-30 27 -138 0 -108 -1 -112 -27 -138 -74 -70 -194 -76 -261 -14 -42 39 -56 77
-56 152 0 75 14 113 56 152 47 44 128 56 196 27z"/>
<path d="M6670 1148 l0 -151 -22 20 c-46 42 -90 57 -163 58 -59 0 -78 -4 -117
-27 -90 -53 -138 -142 -138 -253 0 -111 48 -200 138 -253 83 -48 229 -31 282
33 16 19 30 4 30 -32 0 -20 5 -23 45 -23 l45 0 0 390 0 390 -50 0 -50 0 0
-152z m-103 -169 c15 -5 45 -22 66 -36 l37 -26 0 -122 0 -123 -46 -31 c-99
-65 -204 -53 -268 32 -22 30 -33 130 -22 191 8 43 49 94 91 112 37 16 104 18
142 3z"/>
<path d="M2318 1251 c-113 -37 -202 -127 -235 -240 -24 -82 -15 -219 20 -294
90 -196 338 -262 575 -152 l52 24 0 171 0 170 -140 0 -140 0 0 -45 0 -45 95 0
95 0 0 -99 0 -99 -42 -17 c-24 -10 -75 -20 -114 -23 -194 -13 -318 101 -318
293 0 132 58 223 171 265 94 35 237 18 331 -40 18 -11 35 -20 37 -20 3 0 5 22
5 49 l0 49 -49 21 c-120 51 -245 63 -343 32z"/>
<path d="M5117 1259 c-99 -23 -196 -99 -237 -185 -50 -102 -49 -267 1 -371 28
-59 94 -124 154 -153 106 -51 262 -50 379 3 l56 26 0 45 c0 26 -2 46 -4 46 -3
0 -20 -9 -38 -20 -91 -53 -262 -64 -343 -22 -47 24 -95 72 -121 122 -15 28
-19 57 -19 140 0 83 4 112 19 140 26 50 74 98 121 122 81 42 252 31 343 -22
18 -11 35 -20 38 -20 2 0 4 20 4 46 0 45 0 45 -53 69 -91 42 -210 55 -300 34z"/>
<path d="M3039 1066 c-123 -44 -179 -128 -179 -271 0 -123 40 -200 131 -249
150 -82 347 -10 393 145 62 208 -62 390 -263 389 -25 -1 -62 -7 -82 -14z m175
-99 c51 -29 74 -61 85 -122 19 -102 -18 -192 -93 -226 -130 -59 -256 28 -256
176 0 151 141 243 264 172z"/>
<path d="M3705 1071 c-73 -19 -131 -66 -169 -136 -31 -58 -31 -222 0 -280 28
-51 68 -91 119 -118 57 -30 193 -30 250 0 51 27 91 67 119 118 17 33 21 57 21
140 0 83 -4 107 -21 140 -28 51 -68 92 -117 117 -43 21 -154 32 -202 19z m179
-115 c20 -15 43 -41 52 -57 21 -42 28 -116 15 -165 -50 -187 -317 -172 -345
19 -21 140 60 242 186 234 42 -2 65 -10 92 -31z"/>
<path d="M5756 1064 c-183 -58 -239 -332 -96 -475 117 -117 324 -100 416 34
64 93 65 250 0 344 -63 94 -201 135 -320 97z m161 -85 c42 -15 92 -68 103
-109 32 -114 -13 -225 -103 -259 -70 -27 -166 1 -208 60 -21 30 -24 45 -24
124 0 79 3 94 24 124 42 59 138 87 208 60z"/>
<path d="M7073 1056 c-62 -20 -96 -49 -128 -108 -25 -45 -30 -67 -33 -144 -4
-77 -1 -98 18 -143 52 -120 182 -174 342 -140 91 19 108 33 108 84 l0 44 -45
-20 c-25 -11 -67 -23 -94 -26 -126 -15 -203 29 -235 135 l-7 22 210 0 210 0
-5 53 c-17 161 -92 243 -231 252 -42 3 -84 0 -110 -9z m169 -88 c24 -14 48
-38 59 -60 35 -69 38 -68 -142 -68 -143 0 -160 2 -155 16 3 9 6 22 6 29 0 21
51 76 85 91 46 20 102 17 147 -8z"/>
</g>
</svg>
